<svg xmlns="http://www.w3.org/2000/svg" viewBox="0 0 33 33" width="1024" height="1024" fill="rgb(240, 190, 150)"><path d="M19.42 4.842 7.785 11.56v10.064l7.539 4.353-2.921 1.686-7.54-4.353V9.874L16.5 3.156zM25.216 21.625l-11.638 6.717 2.921 1.686 11.638-6.716z"/><path d="m20.598 5.522-2.921 1.686 7.539 4.352v10.064l2.92 1.686V9.874zM16.922 9.328l.892.532v13.666l-.892.515zM12.523 11.862l4.399-2.534-.002 14.714-2.848-1.644v-8.82h-1.549z"/><path fill-rule="evenodd" d="M3 8.796 16.5 1 30 8.796v15.592l-13.5 7.796L3 24.388zm26.64.208L16.5 1.417V1.41L3.357 8.997v15.182L16.5 31.772l13.141-7.587z" clip-rule="evenodd"/></svg>
